<svg width="145" height="25" viewBox="0 0 145 25" fill="none" xmlns="http://www.w3.org/2000/svg">
<path d="M5.59088 12.5791L14.8674 0.518412H21.3557L12.9438 11.2034L21.7257 24.4988H15.1311L9.31131 15.3122L5.59088 20.02V24.4988H0V0.518412H5.59088V12.5791Z" fill="#1B2648"/>
<path d="M64.5361 11.8914C64.994 11.8914 65.4233 11.8117 65.824 11.6543C66.2226 11.4949 66.5721 11.2741 66.8726 10.992C67.1731 10.7099 67.4082 10.3685 67.5779 9.96991C67.7476 9.56925 67.8334 9.12362 67.8334 8.62892C67.8334 8.1465 67.7476 7.70291 67.5779 7.29816C67.4082 6.89137 67.1731 6.54181 66.8726 6.24949C66.5721 5.95513 66.2226 5.72618 65.824 5.5606C65.4233 5.39706 64.994 5.31325 64.5361 5.31325H59.8447V11.8914H64.5361ZM63.4077 16.6871H59.8447V24.5H54.2559V0.517586H64.7651C66.0223 0.517586 67.1813 0.713827 68.2402 1.10835C69.2971 1.50288 70.2108 2.05482 70.9815 2.76619C71.7521 3.47757 72.3511 4.33 72.7804 5.32347C73.2096 6.31695 73.4243 7.41876 73.4243 8.62892C73.4243 9.47522 73.318 10.2725 73.1054 11.0186C72.8948 11.7647 72.5943 12.4434 72.2059 13.0546C71.8196 13.6658 71.3494 14.2075 70.7955 14.6777C70.2435 15.1478 69.6262 15.5424 68.9455 15.8592L74.0048 24.5H67.5861L63.4077 16.6871Z" fill="#1B2648"/>
<path d="M41.9648 11.5108C41.9505 12.2365 41.8728 12.9642 41.7338 13.6838C41.6255 14.2459 41.4804 14.806 41.2943 15.3559C41.0225 16.1695 40.6647 16.9667 40.2232 17.7333C39.7735 18.5101 39.2522 19.2276 38.6737 19.8797C38.2383 19.5118 37.8274 19.107 37.4472 18.6696C37.9255 18.1217 38.3568 17.5207 38.7309 16.8727C39.1009 16.2349 39.3994 15.5726 39.6324 14.898C39.8225 14.3481 39.9677 13.7901 40.0678 13.2279C40.2436 12.2549 40.2886 11.2696 40.2089 10.2945C40.1537 9.62607 40.0392 8.96375 39.8654 8.31574C39.43 6.68244 38.6246 5.13907 37.4696 3.81444C36.3065 5.13499 35.497 6.68039 35.0575 8.3137C34.3645 8.52629 33.7104 8.82883 33.1094 9.20496C33.4916 6.79078 34.5567 4.48085 36.2595 2.57975C36.3351 2.49594 36.4128 2.41417 36.4905 2.33241C36.4987 2.32219 36.5089 2.30992 36.5191 2.30174L36.7828 2.03191C36.8012 2.01147 36.8216 1.99307 36.8421 1.97263L37.4574 1.36959L38.6757 2.57771C38.6798 2.5818 38.6839 2.58588 38.6859 2.58997C40.3785 4.49107 41.4333 6.79691 41.8115 9.20905C41.9301 9.96745 41.9812 10.7402 41.9648 11.5108Z" fill="#1B2648"/>
<path d="M41.3118 23.4072C40.163 24.0204 38.8527 24.3679 37.4626 24.3679C36.0603 24.3679 34.7398 24.0143 33.5848 23.3929C32.9531 23.0515 32.3705 22.6304 31.8513 22.1439C30.6882 21.0523 29.8398 19.6234 29.4678 18.0166C29.942 17.5403 30.4572 17.107 31.0071 16.7227C31.1747 18.679 32.2152 20.3879 33.7361 21.4591C34.3146 21.8679 34.9605 22.1827 35.6576 22.3851C36.23 22.5527 36.8371 22.6426 37.4626 22.6426C38.08 22.6426 38.6748 22.5547 39.2411 22.3933C39.9013 22.7939 40.5923 23.1332 41.3118 23.4072Z" fill="#1B2648"/>
<path d="M45.6673 16.162C45.6673 16.7916 45.5958 17.4048 45.4609 17.9956C45.0888 19.6228 44.2303 21.0639 43.0508 22.1637C42.4028 21.9899 41.7711 21.761 41.166 21.4748C42.7012 20.4016 43.754 18.6783 43.9175 16.7078C43.9339 16.5279 43.942 16.3459 43.942 16.162C43.942 15.6141 43.8725 15.0826 43.7437 14.5736C43.4453 13.39 42.8198 12.3352 41.9673 11.5114C41.9857 10.7387 41.9346 9.96806 41.8161 9.20967C44.0483 10.612 45.561 13.0609 45.6612 15.8615C45.6653 15.9616 45.6673 16.0618 45.6673 16.162Z" fill="#1B2648"/>
<path d="M50.2864 23.5574C50.2864 23.5574 49.4483 23.8232 48.6204 23.9908C47.7312 24.1789 46.8399 24.2688 45.9568 24.2688C44.3562 24.2688 42.7822 23.9724 41.3104 23.4082C40.5929 23.1322 39.8999 22.7929 39.2396 22.3943C38.61 22.0141 38.009 21.5786 37.4469 21.0921C37.0135 20.718 36.6026 20.3113 36.2183 19.8758C35.65 19.234 35.139 18.5267 34.6974 17.7601C34.2518 16.9874 33.894 16.1861 33.6201 15.3664C34.1577 15.1701 34.7117 15.0168 35.282 14.9044C35.5151 15.5871 35.8176 16.2556 36.1876 16.8995C36.5576 17.5373 36.9808 18.1301 37.4509 18.6698C37.8312 19.1072 38.242 19.512 38.6795 19.8799C39.4379 20.5218 40.276 21.0574 41.1673 21.4744C41.7744 21.7606 42.404 21.9895 43.052 22.1633C44.6874 22.6007 46.4311 22.6723 48.1584 22.3289C47.5922 20.6649 46.658 19.1931 45.4621 17.9972C45.5971 17.4065 45.6686 16.7932 45.6686 16.1615C45.6686 16.0614 45.6666 15.9612 45.6625 15.8631C47.7762 17.572 49.3584 19.9453 50.0718 22.7234L50.2864 23.5574Z" fill="#1B2648"/>
<path d="M24.6436 23.5705C24.6436 23.5705 24.8337 22.7119 25.0994 21.9106C25.3815 21.0459 25.7474 20.2303 26.189 19.4658C26.9903 18.0777 28.0328 16.8635 29.2573 15.87C29.8542 15.3856 30.494 14.9542 31.1707 14.5822C31.8126 14.2265 32.4912 13.9219 33.1924 13.6787C33.7341 13.4906 34.2922 13.3393 34.8604 13.2228C35.7006 13.0511 36.5694 12.9611 37.4545 12.9611C38.3458 12.9611 39.2187 13.0531 40.067 13.2248C39.9668 13.789 39.8238 14.3471 39.6357 14.8949C38.9284 14.7559 38.1986 14.6844 37.4545 14.6844C36.7186 14.6844 35.9929 14.7559 35.2897 14.8949C34.7214 15.0053 34.1654 15.1586 33.6278 15.3528C32.6916 15.6901 31.8105 16.148 31.003 16.7102C30.4532 17.0945 29.9401 17.5258 29.4658 18.0001C28.2679 19.198 27.3358 20.6718 26.7716 22.3399C28.4948 22.6833 30.2385 22.6077 31.8718 22.1702C32.3154 22.5811 32.8101 22.949 33.3559 23.2659C33.4438 23.315 33.5317 23.364 33.6196 23.409C31.0828 24.3861 28.2373 24.5701 25.4735 23.8015L24.6436 23.5705Z" fill="#1B2648"/>
<path d="M34.8431 13.2341C34.2748 13.3506 33.7188 13.5039 33.1791 13.694C33.0401 12.9704 32.9645 12.2406 32.9502 11.5108C33.4612 11.0141 34.0561 10.6012 34.7082 10.2945C34.6244 11.2696 34.6694 12.259 34.8431 13.2341Z" fill="#1B2648"/>
<path d="M41.3086 15.3514C41.4905 14.8016 41.6316 14.2415 41.7358 13.6793C42.4247 13.9103 43.087 14.2006 43.7207 14.542C43.8925 15.2288 43.9538 15.9463 43.8965 16.6638C43.1014 16.116 42.2305 15.6744 41.3086 15.3514Z" fill="#1B2648"/>
<path d="M36.2012 19.8912C36.5855 20.3409 36.9964 20.762 37.4298 21.1524C36.884 21.6226 36.3034 22.0417 35.6901 22.4035C35.0115 22.1868 34.3124 21.872 33.7236 21.4366C34.5945 21.0441 35.4612 20.5147 36.2012 19.8912Z" fill="#1B2648"/>
<path d="M33.3603 9.0494C33.9061 8.7346 34.4744 8.4893 35.0529 8.31145C36.6474 7.82289 38.3257 7.84333 39.867 8.31759C40.0408 8.96559 40.1552 9.62587 40.2125 10.2943C38.5138 9.49913 36.4961 9.45007 34.7075 10.2923C34.5439 10.3679 34.3824 10.4538 34.223 10.5437C33.7487 10.8176 33.3215 11.1427 32.9454 11.5086C32.0684 12.3589 31.4674 13.4281 31.1792 14.5769C30.5025 14.9469 29.8607 15.3782 29.2617 15.8606C29.3619 13.2236 30.7274 10.6909 33.1028 9.20476C33.1886 9.15161 33.2724 9.10051 33.3603 9.0494Z" fill="#1B2648"/>
<path d="M94.8273 6.26297L98.3965 0.516754H91.8735L88.6641 6.26297H94.8273Z" fill="#1B2648"/>
<path d="M89.1631 15.3805L84.0465 6.2634H84.0608L80.8514 0.517181H74.3447L83.5681 15.4357V24.4996H89.157L89.1406 15.4173L89.1631 15.3805Z" fill="#1B2648"/>
<path d="M129.295 15.9704L129.311 15.9295L132.222 8.68289L132.398 7.9061H132.432L132.608 8.68289L135.519 15.9295L135.535 15.9704H129.295ZM135.043 0.50001H129.787L119.965 24.4988H125.873L127.389 20.6905L127.44 20.5617H137.388L137.441 20.6905L138.974 24.4988H144.865L135.043 0.50001Z" fill="#1B2648"/>
<path d="M103.976 15.9704L103.993 15.9295L106.901 8.68289L107.079 7.9061H107.114L107.29 8.68289L110.201 15.9295L110.217 15.9704H103.976ZM109.724 0.50001H104.469L94.6465 24.4988H100.554L102.071 20.6905L102.122 20.5617H112.069L112.122 20.6905L113.655 24.4988H119.547L109.724 0.50001Z" fill="#1B2648"/>
</svg>
