<svg version="1.1" id="svg990" xml:space="preserve" width="300" height="300" viewBox="0 0 682.66669 682.66669" xmlns="http://www.w3.org/2000/svg" xmlns:svg="http://www.w3.org/2000/svg" xmlns:xlink="http://www.w3.org/1999/xlink" xmlns:svgjs="http://svgjs.dev/svgjs"><g width="100%" height="100%" transform="matrix(1,0,0,1,0,0)"><defs id="defs994"><clipPath clipPathUnits="userSpaceOnUse" id="clipPath1004"><path d="M 0,512 H 512 V 0 H 0 Z" id="path1002" fill="#ffffff" fill-opacity="1" data-original-color="#000000ff" stroke="none" stroke-opacity="1"/></clipPath></defs><g id="g996" transform="matrix(1.3333333,0,0,-1.3333333,0,682.66667)"><g id="g998"><g id="g1000" clip-path="url(#clipPath1004)"><g id="g1006" transform="translate(127.8906,53.6504)"><path d="m 0,0 -112.89,-38.654 39.651,111.893 c -23.835,37.279 -39.652,81.581 -39.652,129.11 0,132.548 108.452,241 241,241 132.549,0 241,-108.452 241,-241 0,-132.548 -108.451,-241 -241,-241 C 80.58,-38.651 37.278,-23.835 0,0 Z" style="stroke-linecap: round; stroke-linejoin: round; stroke-miterlimit: 10; stroke-dasharray: none;" id="path1008" fill="none" fill-opacity="1" stroke="#ffffff" stroke-opacity="1" data-original-stroke-color="#000000ff" stroke-width="30" data-original-stroke-width="30"/></g><g id="g1010" transform="translate(151.9375,386.4687)"><path d="m 0,0 c -26.315,-26.314 -18.14,-124.801 47.646,-190.588 65.788,-65.787 164.274,-73.961 190.588,-47.647 l 11.912,11.912 c 6.58,6.579 6.58,17.245 0,23.823 l -47.647,47.647 c -6.578,6.579 -17.244,6.579 -23.823,0 l -11.911,-11.911 c -13.159,-13.158 -34.491,-13.158 -47.648,0 l -47.647,47.647 c -13.157,13.157 -13.157,34.489 0,47.647 l 11.912,11.911 c 6.579,6.579 6.579,17.245 0,23.824 L 35.735,11.912 c -6.579,6.579 -17.245,6.579 -23.824,0 z" style="stroke-linecap: round; stroke-linejoin: round; stroke-miterlimit: 10; stroke-dasharray: none;" id="path1012" fill="none" fill-opacity="1" stroke="#ffffff" stroke-opacity="1" data-original-stroke-color="#000000ff" stroke-width="30" data-original-stroke-width="30"/></g></g></g></g></g></svg>