<svg id="Layer_1" enable-background="new 0 0 60 60" viewBox="0 0 60 60" xmlns="http://www.w3.org/2000/svg" width="300" height="300" version="1.1" xmlns:xlink="http://www.w3.org/1999/xlink" xmlns:svgjs="http://svgjs.dev/svgjs"><g width="100%" height="100%" transform="matrix(1,0,0,1,0,0)"><g><path d="m38.9 38.9c.3-.3.5-.7.7-1.2.2-.6.3-1.4.3-2.4s-.1-1.8-.3-2.3-.4-.9-.7-1.2-.7-.5-1.2-.6c-.4-.1-1.1-.1-2.1-.1h-1.2v8.5h1.9c.7 0 1.3 0 1.6-.1.4-.1.7-.3 1-.6z" fill="#ffffff" fill-opacity="1" data-original-color="#000000ff" stroke="none" stroke-opacity="1"/><path d="m51.4 5h-42.8c-2 0-3.6 1.6-3.6 3.6v7h50v-7c0-2-1.6-3.6-3.6-3.6zm-38 7.3h-2c-.6 0-1-.4-1-1s.4-1 1-1h2c.6 0 1 .4 1 1s-.4 1-1 1zm5 0h-2c-.6 0-1-.4-1-1s.4-1 1-1h2c.6 0 1 .4 1 1s-.4 1-1 1zm5 0h-2c-.6 0-1-.4-1-1s.4-1 1-1h2c.6 0 1 .4 1 1s-.4 1-1 1zm25.2 0h-13.6c-.6 0-1-.4-1-1s.4-1 1-1h13.6c.6 0 1 .4 1 1s-.4 1-1 1z" fill="#ffffff" fill-opacity="1" data-original-color="#000000ff" stroke="none" stroke-opacity="1"/><path d="m23.8 31.9-1.7 4.8h3.5z" fill="#ffffff" fill-opacity="1" data-original-color="#000000ff" stroke="none" stroke-opacity="1"/><path d="m5 51.3c0 2 1.6 3.7 3.6 3.7h42.7c2 0 3.6-1.6 3.6-3.7v-33.6h-49.9zm26.8-22.4h4.8c1.1 0 1.9.1 2.5.2.8.2 1.4.6 1.9 1.2s.9 1.3 1.2 2.1.4 1.8.4 3c0 1.1-.1 2-.4 2.7-.3.9-.8 1.7-1.4 2.3-.5.4-1.1.8-1.8 1-.6.2-1.3.3-2.3.3h-4.9zm-9.3 0h2.8l5.2 12.9h-2.8l-1.1-2.9h-5.1l-1.1 2.9h-2.8z" fill="#ffffff" fill-opacity="1" data-original-color="#000000ff" stroke="none" stroke-opacity="1"/></g></g></svg>