<svg id="Layer_1" viewBox="0 0 48 48" xmlns="http://www.w3.org/2000/svg" data-name="Layer 1" width="300" height="300" version="1.1" xmlns:xlink="http://www.w3.org/1999/xlink" xmlns:svgjs="http://svgjs.dev/svgjs"><g width="100%" height="100%" transform="matrix(1,0,0,1,0,0)"><path d="m25.5 10h-19a2.501 2.501 0 0 0 -2.5 2.5v13a2.501 2.501 0 0 0 2.5 2.5l2.3501.01c-.0901.57-.18994 1.16-.3301 1.78l-.12988.6a1.95583 1.95583 0 0 0 .48974 1.83 1.97609 1.97609 0 0 0 1.78028.59 12.39126 12.39126 0 0 0 7.84986-4.81h6.99a2.501 2.501 0 0 0 2.5-2.5v-13a2.501 2.501 0 0 0 -2.5-2.5zm-10 15a1 1 0 1 1 1-1 1.00291 1.00291 0 0 1 -1 1zm.99-4.64.01.64a1 1 0 0 1 -2 0v-.58a2.05372 2.05372 0 0 1 1.42993-1.98 1.51123 1.51123 0 0 0 1.02-1.86 1.484 1.484 0 0 0 -1.03-1.03 1.5452 1.5452 0 0 0 -1.33984.26 1.49654 1.49654 0 0 0 -.58009 1.19 1 1 0 0 1 -2 0 3.50157 3.50157 0 1 1 4.49 3.36z" fill="#ffffff" fill-opacity="1" data-original-color="#000000ff" stroke="none" stroke-opacity="1"/><path d="m35 14a2.00583 2.00583 0 0 1 -2-2v-9h-21a2.00579 2.00579 0 0 0 -2 2v3.5h15.5a3.99891 3.99891 0 0 1 4 4v13a3.999 3.999 0 0 1 -4 4h-6.26a14.13456 14.13456 0 0 1 -2.82983 2.57 13.49929 13.49929 0 0 1 -4.41017 1.98 9.73981 9.73981 0 0 1 -1.07007.24 3.24232 3.24232 0 0 1 -.61987.05 1.56813 1.56813 0 0 1 -.31006-.02v7.68a3.0007 3.0007 0 0 0 2 2.82 2.772 2.772 0 0 0 1 .18h28a2.772 2.772 0 0 0 1-.18 3.00036 3.00036 0 0 0 2-2.82v-28zm3 26h-18a1 1 0 0 1 0-2h18a1 1 0 0 1 0 2zm0-5h-16a1 1 0 0 1 0-2h16a1 1 0 0 1 0 2zm0-5h-6a1 1 0 0 1 0-2h6a1 1 0 0 1 0 2zm0-5h-6a1 1 0 0 1 0-2h6a1 1 0 0 1 0 2zm5.95-13a1.94124 1.94124 0 0 0 -.57983-1.02l-7.90017-7.44a1.86171 1.86171 0 0 0 -.47-.32v8.78z" fill="#ffffff" fill-opacity="1" data-original-color="#000000ff" stroke="none" stroke-opacity="1"/></g></svg>