<svg id="Glyph" viewBox="0 0 64 64" xmlns="http://www.w3.org/2000/svg" width="300" height="300" version="1.1" xmlns:xlink="http://www.w3.org/1999/xlink" xmlns:svgjs="http://svgjs.dev/svgjs"><g width="100%" height="100%" transform="matrix(1,0,0,1,0,0)"><path d="m4.82849 34.62356c.13599.15302.28833.28918.46149.4046l20.80005 14.91919v5.36969c0 .41992.25995.78992.64996.92993l9.82001 3.68976c.62213.24701 1.37079-.26324 1.34998-.93994v-9.04944l20.80005-14.91919c2.83887-1.10187-52.64062-.10809-53.88153-.4046z" fill="#ffffff" fill-opacity="1" data-original-color="#000000ff" stroke="none" stroke-opacity="1"/><path d="m57 26.24868h-50c-1.65002 0-3 1.34991-3 2.99982v3.3598h56v-3.3598c0-1.6499-1.34998-2.99982-3-2.99982z" fill="#ffffff" fill-opacity="1" data-original-color="#000000ff" stroke="none" stroke-opacity="1"/><path d="m40.87 21.42898c-.8465-2.3418-2.78253-4.36133-5.07001-5.34973 5.26251-3.60889 2.66791-12.09564-3.80011-12.07922-6.47357-.00885-9.05688 8.45966-3.79968 12.07922-2.3302 1.02997-4.17017 2.95984-5.06018 5.35974-.33002.87994-.54004 1.82983-.58002 2.80981h18.88c-.03998-.97998-.23999-1.92987-.57001-2.81982z" fill="#ffffff" fill-opacity="1" data-original-color="#000000ff" stroke="none" stroke-opacity="1"/><path d="m43.81 18.90908c-.91516.56598-1.80713.64258-1.06989 1.81989.42645 1.14539.66595 2.32184.69989 3.51984h11.38c-.4469-2.26636-2.06677-4.35645-4.16998-5.34973 1.27997-1.00989 2.08997-2.55981 2.08997-4.30975 0-3.03979-2.46997-5.50964-5.51001-5.50964-5.20355-.01978-7.466 6.67822-3.41998 9.82941z" fill="#ffffff" fill-opacity="1" data-original-color="#000000ff" stroke="none" stroke-opacity="1"/><path d="m20.56 24.16878c.04999-1.15991.28998-2.30988.71002-3.42981.73309-1.19659-.15497-1.25574-1.08014-1.82996 1.27014-1.00989 2.09015-2.56976 2.09015-4.3197-.255-7.2901-10.76428-7.29291-11.02002.00012 0 1.74982.82001 3.30969 2.08997 4.31964-2.09998 1.02997-3.67999 2.98981-4.17999 5.33972.02216-.08313 11.53467.14752 11.39001-.08002z" fill="#ffffff" fill-opacity="1" data-original-color="#000000ff" stroke="none" stroke-opacity="1"/></g></svg>