<svg version="1.1" id="Capa_1" xmlns="http://www.w3.org/2000/svg" xmlns:xlink="http://www.w3.org/1999/xlink" x="0px" y="0px" viewBox="0 0 512 512" style="enable-background:new 0 0 512 512;" xml:space="preserve" width="300" height="300" xmlns:svgjs="http://svgjs.dev/svgjs"><g width="100%" height="100%" transform="matrix(1,0,0,1,0,0)"><g>
	<g>
		<path d="M333.045,357.153c-1.236-3.801-4.523-6.571-8.478-7.146l-40.873-5.939l-18.278-37.037&#10;&#9;&#9;&#9;c-1.77-3.584-5.419-5.853-9.416-5.853c-3.997,0-7.646,2.269-9.416,5.853l-18.278,37.037l-40.873,5.939&#10;&#9;&#9;&#9;c-3.955,0.575-7.241,3.345-8.477,7.146c-1.234,3.801-0.205,7.974,2.657,10.764l29.576,28.829l-6.982,40.708&#10;&#9;&#9;&#9;c-0.676,3.939,0.943,7.921,4.177,10.27s7.521,2.66,11.058,0.799L256,429.303l36.559,19.22c1.536,0.808,3.214,1.206,4.885,1.206&#10;&#9;&#9;&#9;c2.177,0,4.344-0.676,6.173-2.005c3.233-2.349,4.853-6.331,4.177-10.27l-6.982-40.708l29.576-28.829&#10;&#9;&#9;&#9;C333.25,365.127,334.28,360.955,333.045,357.153z" fill="#ffffff" fill-opacity="1" data-original-color="#000000ff" stroke="none" stroke-opacity="1"/>
	</g>
</g><g>
	<g>
		<path d="M163.238,357.155c-1.238-3.802-4.524-6.572-8.479-7.147l-40.873-5.939l-18.278-37.037&#10;&#9;&#9;&#9;c-1.77-3.584-5.419-5.853-9.416-5.853s-7.646,2.269-9.416,5.853l-18.278,37.037l-40.873,5.939&#10;&#9;&#9;&#9;c-3.955,0.575-7.241,3.345-8.477,7.146c-1.234,3.801-0.205,7.974,2.657,10.764l29.576,28.83L34.4,437.456&#10;&#9;&#9;&#9;c-0.676,3.939,0.943,7.92,4.177,10.27c3.232,2.349,7.52,2.658,11.058,0.799l36.558-19.22l36.559,19.22&#10;&#9;&#9;&#9;c1.536,0.808,3.214,1.206,4.885,1.206c2.177,0,4.344-0.676,6.173-2.005c3.233-2.349,4.853-6.331,4.177-10.27l-6.982-40.708&#10;&#9;&#9;&#9;l29.576-28.829C163.443,365.129,164.473,360.957,163.238,357.155z" fill="#ffffff" fill-opacity="1" data-original-color="#000000ff" stroke="none" stroke-opacity="1"/>
	</g>
</g><g>
	<g>
		<path d="M502.855,357.153c-1.238-3.8-4.524-6.57-8.479-7.145l-40.873-5.939l-18.278-37.037c-1.77-3.584-5.419-5.853-9.416-5.853&#10;&#9;&#9;&#9;s-7.646,2.269-9.416,5.853l-18.278,37.037l-40.873,5.939c-3.955,0.575-7.241,3.345-8.477,7.146&#10;&#9;&#9;&#9;c-1.234,3.801-0.205,7.974,2.657,10.764l29.576,28.829l-6.982,40.708c-0.676,3.939,0.943,7.921,4.177,10.27&#10;&#9;&#9;&#9;c1.829,1.329,3.995,2.005,6.173,2.005c1.671,0,3.349-0.398,4.885-1.206l36.559-19.22l36.558,19.22&#10;&#9;&#9;&#9;c3.536,1.859,7.823,1.551,11.058-0.799c3.233-2.349,4.853-6.331,4.177-10.27l-6.981-40.708l29.576-28.83&#10;&#9;&#9;&#9;C503.06,365.127,504.09,360.955,502.855,357.153z" fill="#ffffff" fill-opacity="1" data-original-color="#000000ff" stroke="none" stroke-opacity="1"/>
	</g>
</g><g>
	<g>
		<path d="M439.888,62.27H72.112C32.35,62.27,0,94.619,0,134.382v48.659c0,37.125,28.196,67.787,64.301,71.691l15.592,20.773&#10;&#9;&#9;&#9;c5.14,6.848,12.997,10.852,21.557,10.985c0.147,0.002,0.295,0.003,0.441,0.003c8.393,0,16.189-3.741,21.447-10.309l16.841-21.032&#10;&#9;&#9;&#9;h299.709c39.763,0,72.112-32.349,72.112-72.112v-48.659C512,94.619,479.65,62.27,439.888,62.27z M223.832,203.257H87.296&#10;&#9;&#9;&#9;c-8.284,0-15-6.716-15-15s6.716-15,15-15h136.536c8.284,0,15,6.716,15,15S232.116,203.257,223.832,203.257z M424.704,142.945&#10;&#9;&#9;&#9;H87.296c-8.284,0-15-6.716-15-15s6.716-15,15-15h337.408c8.284,0,15,6.716,15,15S432.988,142.945,424.704,142.945z" fill="#ffffff" fill-opacity="1" data-original-color="#000000ff" stroke="none" stroke-opacity="1"/>
	</g>
</g><g>
</g><g>
</g><g>
</g><g>
</g><g>
</g><g>
</g><g>
</g><g>
</g><g>
</g><g>
</g><g>
</g><g>
</g><g>
</g><g>
</g><g>
</g></g></svg>