<svg id="Layer_25" enable-background="new 0 0 512 512" height="300" viewBox="0 0 512 512" width="300" xmlns="http://www.w3.org/2000/svg" version="1.1" xmlns:xlink="http://www.w3.org/1999/xlink" xmlns:svgjs="http://svgjs.dev/svgjs"><g width="100%" height="100%" transform="matrix(1,0,0,1,0,0)"><path d="m410.623 427.909h85.284c8.874 0 16.093-7.219 16.093-16.094v-14.249c0-48.649-39.579-88.228-88.228-88.228h-35.039c17.82 21.735 28.529 49.519 28.529 79.752v17.376c0 7.95-2.452 15.335-6.639 21.443zm-259.753 0h228.378c11.823 0 21.443-9.619 21.443-21.442v-17.376c0-60.326-49.079-109.404-109.404-109.404h-70.574c-60.325 0-109.404 49.078-109.404 109.404v17.376c0 11.823 9.619 21.442 21.442 21.442zm-62.642-118.57c-48.649 0-88.228 39.578-88.228 88.228v14.249c0 8.874 7.219 16.094 16.093 16.094h85.284c-4.188-6.108-6.639-13.493-6.639-21.442v-17.376c0-30.233 10.709-58.017 28.528-79.752h-35.038zm241.577-72.721c.504.692.909 1.473 1.187 2.331 9.025 27.872 34.787 46.597 64.105 46.597 37.149 0 67.373-30.223 67.373-67.373s-30.224-67.373-67.374-67.373c-13.86 0-27.076 4.137-38.37 11.986.091 1.748.137 3.508.137 5.278 0 26.468-10.281 50.581-27.058 68.554zm-212.377-85.818c-37.149 0-67.372 30.224-67.372 67.374s30.223 67.373 67.372 67.373c29.358 0 55.13-18.76 64.131-46.681.278-.862.683-1.647 1.188-2.34-16.728-17.963-26.972-42.037-26.972-68.461 0-1.743.045-3.48.133-5.201-11.317-7.901-24.572-12.064-38.48-12.064zm138.891-66.709c-46.303 0-83.973 37.67-83.973 83.973s37.67 83.973 83.973 83.973 83.973-37.67 83.973-83.973-37.67-83.973-83.973-83.973z" fill="#ffffff" fill-opacity="1" data-original-color="#000000ff" stroke="none" stroke-opacity="1"/></g></svg>