<svg clip-rule="evenodd" fill-rule="evenodd" height="300" image-rendering="optimizeQuality" shape-rendering="geometricPrecision" text-rendering="geometricPrecision" viewBox="0 0 18062 18062" width="300" xmlns="http://www.w3.org/2000/svg" version="1.1" xmlns:xlink="http://www.w3.org/1999/xlink" xmlns:svgjs="http://svgjs.dev/svgjs"><g width="100%" height="100%" transform="matrix(1,0,0,1,0,0)"><g id="Layer_x0020_1"><path d="m4668 6746v971c0 1275 1038 2313 2313 2313 1276 0 2313-1038 2313-2313v-955c-126-1773-1514-1925-2105-1909-1183 34-2509 820-2521 1893zm-636 91c-760-1185-728-2299 94-3144 538-554 491-1022 942-1484 754-773 1858-575 2623-359 460 131 1231 28 1728 409 648 495 1066 1207 1179 2003 119 847-111 1739-668 2584v871c0 1626-1323 2949-2949 2949s-2949-1323-2949-2949z" fill="#ffffff" fill-opacity="1" data-original-color="#000000ff" stroke="none" stroke-opacity="1"/><path d="m4842 11793c-54 0-110-14-160-44-152-88-202-283-114-435l858-1462c89-152 284-202 435-114 152 89 203 284 114 436l-858 1462c-59 101-165 157-275 157z" fill="#ffffff" fill-opacity="1" data-original-color="#000000ff" stroke="none" stroke-opacity="1"/><path d="m13620 18070h-2422v-2017c0-91-74-166-165-166-92 0-166 75-166 166v2017h-2744l-15-173 2656-3066c32-35 46-84 39-131s-33-89-73-115l-741-486 1165-901c71-55 86-156 33-228l-1111-1519 79-283c2111 149 3783 1914 3783 4062v2522c0 176-142 318-318 318zm-5552-632-264-3020 159-863c18 7 39 11 59 11 31 0 60-8 86-24l1616-988c36-22 62-58 74-99l165-597 861 1177-1222 944c-42 32-66 84-64 137 2 54 30 103 75 132l777 510zm-41-4235 145-790 5-13c26-70 2-149-59-192l-444-319 1269-693c47-25 100-39 153-39h355l263 359-220 791zm-475 1059h-1165l-252-1875 444-327 390 213 382-208 451 324zm-1418 156-264 3023-2322-2683 777-510c45-29 73-78 75-132 2-53-22-105-64-137l-1227-948 790-1163 148 591c10 41 39 76 76 98l1711 987c25 15 53 22 82 22 21 0 41-3 60-11zm-304 3483-15 169h-2744v-2017c0-91-74-166-165-166-92 0-166 75-166 166v2017h-2422c-176 0-318-142-318-318v-2522c0-2128 1642-3881 3726-4058l66 266-1044 1537c-49 72-33 170 36 223l1165 901-741 486c-39 26-66 68-73 115-6 47 8 95 39 131zm-1447-6744h460c53 0 105 14 152 39l1263 689-440 324c-59 44-83 122-57 191l5 13 146 794-1565-904-199-801zm3137 6913h-1106l-236-273 264-3203h1054l264 3199z" fill="#ffffff" fill-opacity="1" data-original-color="#000000ff" stroke="none" stroke-opacity="1"/><path d="m9096 11793c-109 0-215-56-275-157l-852-1452c-88-152-38-347 114-435 151-89 346-39 435 113l852 1452c89 152 38 347-113 435-51 30-106 44-161 44z" fill="#ffffff" fill-opacity="1" data-original-color="#000000ff" stroke="none" stroke-opacity="1"/><path d="m14804 2834h-3022c-176 0-318-142-318-318v-2206c0-175 142-318 318-318h3022c176 0 318 143 318 318v2206c0 176-142 318-318 318zm-2704-636h2386v-1570h-2386z" fill="#ffffff" fill-opacity="1" data-original-color="#000000ff" stroke="none" stroke-opacity="1"/><path d="m17367 7876h-7136c3-53 4-106 4-159v-781c220-347 398-719 520-1105h1915v170c0 343 279 622 623 622s623-279 623-622v-170h3769v1727c0 176-143 318-318 318z" fill="#ffffff" fill-opacity="1" data-original-color="#000000ff" stroke="none" stroke-opacity="1"/><path d="m17744 5526h-3828v-170c0-344-279-623-623-623s-623 279-623 623v170h-1832c97-424 124-863 62-1307-112-787-494-1493-1077-2021h7921c176 0 318 143 318 318v2692c0 175-142 318-318 318z" fill="#ffffff" fill-opacity="1" data-original-color="#000000ff" stroke="none" stroke-opacity="1"/><path d="m13293 6319c-175 0-318-143-318-318v-645c0-176 143-318 318-318 176 0 318 142 318 318v645c0 175-142 318-318 318z" fill="#ffffff" fill-opacity="1" data-original-color="#000000ff" stroke="none" stroke-opacity="1"/></g></g></svg>