<svg id="Layer_1" height="300" viewBox="0 0 64 64" width="300" xmlns="http://www.w3.org/2000/svg" data-name="Layer 1" version="1.1" xmlns:xlink="http://www.w3.org/1999/xlink" xmlns:svgjs="http://svgjs.dev/svgjs"><g width="100%" height="100%" transform="matrix(1,0,0,1,0,0)"><path d="m55 48-5-5 4-4-16-4 4 16 4-4 5 5z" fill="#ffffff" fill-opacity="1" data-original-color="#000000ff" stroke="none" stroke-opacity="1"/><path d="m53 16a4 4 0 0 0 -4-4h-36a4 4 0 0 0 -4 4v22a4 4 0 0 0 4 4h4l4 8 4-8h12.69l-2.44-9.75 17.75 4.44zm-25 17h-14a1 1 0 0 1 0-2h14a1 1 0 0 1 0 2zm3 2a1 1 0 0 1 1-1h2a1 1 0 0 1 0 2h-2a1 1 0 0 1 -1-1zm1.051-5.949a1 1 0 0 1 1.414 0l1.414 1.414a1 1 0 1 1 -1.414 1.414l-1.414-1.414a1 1 0 0 1 0-1.414zm3.828 8.07a1 1 0 0 1 0 1.414l-1.414 1.414a1 1 0 0 1 -1.414-1.414l1.414-1.414a1 1 0 0 1 1.414 0zm3.121-6.121a1 1 0 0 1 -2 0v-2a1 1 0 0 1 2 0zm3.949.465-1.414 1.414a1 1 0 0 1 -1.414-1.414l1.414-1.414a1 1 0 0 1 1.414 1.414zm5.051-4.465h-34a1 1 0 0 1 0-2h34a1 1 0 0 1 0 2zm0-6h-34a1 1 0 0 1 0-2h34a1 1 0 0 1 0 2z" fill="#ffffff" fill-opacity="1" data-original-color="#000000ff" stroke="none" stroke-opacity="1"/></g></svg>